<svg width="48" height="47" viewBox="0 0 48 47" fill="none" xmlns="http://www.w3.org/2000/svg">
<path d="M44.9409 32.3887C42.3495 29.7992 38.4825 29.2584 35.3485 30.7486L34.3382 29.7383C33.5069 28.9079 32.1957 28.7364 31.1545 29.2059L25.742 23.7935C25.578 23.6295 25.3943 23.4936 25.2125 23.3577C25.3953 23.2218 25.579 23.0859 25.742 22.9219L31.0654 17.5985C31.4459 17.7794 31.8555 17.8806 32.2688 17.8806C32.9895 17.8806 33.7093 17.606 34.2576 17.0577L35.266 16.0493C36.3869 16.5854 37.6184 16.8778 38.8968 16.8778C41.1489 16.8778 43.268 15.9996 44.8603 14.4063C48.149 11.1177 48.149 5.76615 44.8603 2.47746C41.5716 -0.811231 36.2201 -0.814042 32.9314 2.47746C31.3381 4.06979 30.46 6.18884 30.46 8.44097C30.46 9.72027 30.7524 10.9518 31.2885 12.0727L30.28 13.0802C29.4169 13.9434 29.2444 15.2283 29.7393 16.2723L24.4159 21.5957C23.8854 22.1281 23.1797 22.4205 22.428 22.4205H20.9969C20.6089 21.3324 19.578 20.546 18.3577 20.546H16.9285C15.7672 17.2752 12.6501 14.9228 8.98555 14.9228C4.33415 14.9228 0.550606 18.7063 0.550606 23.3577C0.550606 28.0091 4.33415 31.7926 8.98555 31.7926C12.6501 31.7926 15.7672 29.4402 16.9285 26.1693H18.3577C19.578 26.1693 20.6089 25.383 20.9969 24.2949H22.428C23.1797 24.2949 23.8863 24.5883 24.4168 25.1187L29.8189 30.5208C29.6409 30.8938 29.5378 31.3006 29.5378 31.7261C29.5378 32.4777 29.8311 33.1844 30.3616 33.7139L31.3719 34.7242C29.8808 37.8583 30.4206 41.7262 33.012 44.3176C34.6568 45.9615 36.8171 46.7834 38.9765 46.7834C41.1358 46.7834 43.2961 45.9615 44.9409 44.3176C48.2296 41.028 48.2296 35.6783 44.9409 32.3887ZM34.2576 3.80362C35.5359 2.52526 37.2164 1.88514 38.8959 1.88514C40.5763 1.88514 42.2567 2.52526 43.5351 3.80362C46.0927 6.36128 46.0927 10.5235 43.5351 13.0811C42.2961 14.3201 40.6485 15.0034 38.8968 15.0034C37.1442 15.0034 35.4966 14.3201 34.2576 13.0811C33.0186 11.8421 32.3353 10.1945 32.3353 8.4419C32.3353 6.69025 33.0186 5.04262 34.2576 3.80362ZM32.9324 14.4063C33.1554 14.6294 33.3916 14.8356 33.6343 15.0305L32.9324 15.7325C32.5771 16.0868 31.9614 16.0858 31.6062 15.7325C31.2407 15.3661 31.2407 14.7728 31.6062 14.4063L32.3091 13.7044C32.5031 13.9471 32.7093 14.1833 32.9324 14.4063ZM8.98555 29.9182C5.36883 29.9182 2.42504 26.9744 2.42504 23.3577C2.42504 19.741 5.36883 16.7972 8.98555 16.7972C12.6023 16.7972 15.5461 19.741 15.5461 23.3577C15.5461 26.9744 12.6023 29.9182 8.98555 29.9182ZM18.3577 24.2949H17.3652C17.3999 23.9866 17.4205 23.6745 17.4205 23.3577C17.4205 23.0409 17.3999 22.7288 17.3652 22.4205H18.3577C18.8751 22.4205 19.2949 22.8403 19.2949 23.3577C19.2949 23.875 18.8751 24.2949 18.3577 24.2949ZM31.6868 32.3878C31.5097 32.2116 31.4122 31.9773 31.4122 31.7261C31.4122 31.4759 31.5097 31.2406 31.6868 31.0635C32.0429 30.7102 32.6578 30.7092 33.012 31.0635L33.714 31.7655C33.4722 31.9595 33.236 32.1647 33.012 32.3887C32.788 32.6127 32.5828 32.8479 32.3888 33.0907L31.6868 32.3878ZM43.6157 42.9924C41.058 45.55 36.8949 45.55 34.3372 42.9924C31.7796 40.4347 31.7796 36.2716 34.3372 33.7139C36.8958 31.1563 41.059 31.1563 43.6157 33.7139C46.1733 36.2716 46.1733 40.4347 43.6157 42.9924Z" fill="url(#paint0_linear_4_51)"/>
<defs>
<linearGradient id="paint0_linear_4_51" x1="23.9791" y1="-3.42325" x2="23.9791" y2="41.49" gradientUnits="userSpaceOnUse">
<stop stop-color="#1A6DFF"/>
<stop offset="1" stop-color="#C822FF"/>
</linearGradient>
</defs>
</svg>
